<svg xmlns="http://www.w3.org/2000/svg" xmlns:xlink="http://www.w3.org/1999/xlink" contentStyleType="text/css" data-diagram-type="CLASS" height="117px" preserveAspectRatio="none" style="width:268px;height:117px;background:#FFFFFF;" version="1.1" viewBox="0 0 268 117" width="268px" zoomAndPan="magnify"><defs/><g><!--class GPIO_Init()??--><g class="entity" data-entity="GPIO_Init()&#25286;&#35299;" data-source-line="1" data-uid="ent0002" id="entity_GPIO_Init()&#25286;&#35299;"><rect fill="#F1F1F1" height="96.8281" rx="2.5" ry="2.5" style="stroke:#181818;stroke-width:0.5;" width="247.751" x="7" y="7"/><ellipse cx="77.229" cy="23" fill="#ADD1B2" rx="11" ry="11" style="stroke:#181818;stroke-width:1;"/><path d="M79.9946,18.875 Q80.1509,18.6563 80.3384,18.5469 Q80.5259,18.4375 80.7446,18.4375 Q81.1196,18.4375 81.354,18.7031 Q81.5884,18.9531 81.5884,19.5625 L81.5884,21.0156 Q81.5884,21.625 81.354,21.8906 Q81.1196,22.1563 80.7446,22.1563 Q80.4009,22.1563 80.1978,21.9531 Q79.9946,21.7656 79.8853,21.25 Q79.8384,20.8906 79.6509,20.7031 Q79.3228,20.3281 78.7134,20.1094 Q78.104,19.8906 77.479,19.8906 Q76.7134,19.8906 76.0728,20.2188 Q75.4478,20.5469 74.9478,21.2969 Q74.4634,22.0469 74.4634,23.0781 L74.4634,24.1719 Q74.4634,25.4063 75.354,26.2344 Q76.2446,27.0469 77.8384,27.0469 Q78.7759,27.0469 79.4321,26.7969 Q79.8228,26.6406 80.2446,26.2031 Q80.5103,25.9375 80.6509,25.8594 Q80.8071,25.7813 81.0103,25.7813 Q81.3384,25.7813 81.5884,26.0469 Q81.854,26.2969 81.854,26.6406 Q81.854,26.9844 81.5103,27.3906 Q81.0103,27.9688 80.2134,28.2969 Q79.1353,28.75 77.8384,28.75 Q76.3228,28.75 75.1196,28.125 Q74.1353,27.625 73.4478,26.5625 Q72.7603,25.4844 72.7603,24.2031 L72.7603,23.0469 Q72.7603,21.7188 73.3696,20.5781 Q73.9946,19.4219 75.0884,18.8125 Q76.1821,18.1875 77.4165,18.1875 Q78.1509,18.1875 78.7915,18.3594 Q79.4478,18.5156 79.9946,18.875 Z " fill="#000000"/><text fill="#000000" font-family="sans-serif" font-size="14" lengthAdjust="spacing" textLength="98.793" x="97.729" y="28.7285">GPIO_Init()&#25286;&#35299;</text><line style="stroke:#181818;stroke-width:0.5;" x1="8" x2="253.751" y1="39" y2="39"/><ellipse cx="18" cy="74.9141" fill="none" rx="3" ry="3" style="stroke:#038048;stroke-width:1;"/><text fill="#000000" font-family="sans-serif" font-size="14" lengthAdjust="spacing" textLength="147.0479" x="27" y="79.1426">GPIO_TypeDef* GPIOx</text><ellipse cx="18" cy="92.5234" fill="none" rx="3" ry="3" style="stroke:#038048;stroke-width:1;"/><text fill="#000000" font-family="sans-serif" font-size="14" lengthAdjust="spacing" textLength="221.751" x="27" y="96.752">GPIO_InitTypeDef* GPIO_InitStruct</text><line style="stroke:#181818;stroke-width:1;" x1="8" x2="116.8755" y1="55.8047" y2="55.8047"/><text fill="#000000" font-family="sans-serif" font-size="14" lengthAdjust="spacing" textLength="28" x="116.8755" y="61.0332">&#21442;&#25968;</text><line style="stroke:#181818;stroke-width:1;" x1="144.8755" x2="253.751" y1="55.8047" y2="55.8047"/></g><!--SRC=[Iyv9B2vMS0_mz8_tpCiiqT1yrjtsOldYQYu58D3LVThVz6pg1brTC5SReYwaiY3L9JLD2yohG9O1cO0Y2nO9BYagJIxXgWK0]--></g></svg>