<svg xmlns="http://www.w3.org/2000/svg" xmlns:xlink="http://www.w3.org/1999/xlink" contentStyleType="text/css" data-diagram-type="CLASS" height="178px" preserveAspectRatio="none" style="width:194px;height:178px;background:#FFFFFF;" version="1.1" viewBox="0 0 194 178" width="194px" zoomAndPan="magnify"><defs/><g><!--class ????--><g class="entity" data-entity="&#22522;&#26412;&#27493;&#39588;" data-source-line="1" data-uid="ent0002" id="entity_&#22522;&#26412;&#27493;&#39588;"><rect fill="#F1F1F1" height="157.6563" rx="2.5" ry="2.5" style="stroke:#181818;stroke-width:0.5;" width="173.7998" x="7" y="7"/><ellipse cx="61.6499" cy="23" fill="#ADD1B2" rx="11" ry="11" style="stroke:#181818;stroke-width:1;"/><path d="M64.4155,18.875 Q64.5718,18.6563 64.7593,18.5469 Q64.9468,18.4375 65.1655,18.4375 Q65.5405,18.4375 65.7749,18.7031 Q66.0093,18.9531 66.0093,19.5625 L66.0093,21.0156 Q66.0093,21.625 65.7749,21.8906 Q65.5405,22.1563 65.1655,22.1563 Q64.8218,22.1563 64.6187,21.9531 Q64.4155,21.7656 64.3062,21.25 Q64.2593,20.8906 64.0718,20.7031 Q63.7437,20.3281 63.1343,20.1094 Q62.5249,19.8906 61.8999,19.8906 Q61.1343,19.8906 60.4937,20.2188 Q59.8687,20.5469 59.3687,21.2969 Q58.8843,22.0469 58.8843,23.0781 L58.8843,24.1719 Q58.8843,25.4063 59.7749,26.2344 Q60.6655,27.0469 62.2593,27.0469 Q63.1968,27.0469 63.853,26.7969 Q64.2437,26.6406 64.6655,26.2031 Q64.9312,25.9375 65.0718,25.8594 Q65.228,25.7813 65.4312,25.7813 Q65.7593,25.7813 66.0093,26.0469 Q66.2749,26.2969 66.2749,26.6406 Q66.2749,26.9844 65.9312,27.3906 Q65.4312,27.9688 64.6343,28.2969 Q63.5562,28.75 62.2593,28.75 Q60.7437,28.75 59.5405,28.125 Q58.5562,27.625 57.8687,26.5625 Q57.1812,25.4844 57.1812,24.2031 L57.1812,23.0469 Q57.1812,21.7188 57.7905,20.5781 Q58.4155,19.4219 59.5093,18.8125 Q60.603,18.1875 61.8374,18.1875 Q62.5718,18.1875 63.2124,18.3594 Q63.8687,18.5156 64.4155,18.875 Z " fill="#000000"/><text fill="#000000" font-family="sans-serif" font-size="14" lengthAdjust="spacing" textLength="56" x="82.1499" y="28.7285">&#22522;&#26412;&#27493;&#39588;</text><line style="stroke:#181818;stroke-width:0.5;" x1="8" x2="179.7998" y1="39" y2="39"/><ellipse cx="18" cy="74.9141" fill="none" rx="3" ry="3" style="stroke:#038048;stroke-width:1;"/><text fill="#000000" font-family="sans-serif" font-size="14" lengthAdjust="spacing" textLength="147.7998" x="27" y="79.1426">&#20351;&#33021;APB2&#24635;&#32447;&#19978;&#30340;&#26102;&#38047;</text><line style="stroke:#181818;stroke-width:1;" x1="8" x2="67.4482" y1="55.8047" y2="55.8047"/><text fill="#000000" font-family="sans-serif" font-size="14" lengthAdjust="spacing" textLength="52.9033" x="67.4482" y="61.0332">first step</text><line style="stroke:#181818;stroke-width:1;" x1="120.3516" x2="179.7998" y1="55.8047" y2="55.8047"/><ellipse cx="18" cy="114.1328" fill="none" rx="3" ry="3" style="stroke:#038048;stroke-width:1;"/><text fill="#000000" font-family="sans-serif" font-size="14" lengthAdjust="spacing" textLength="77.0068" x="27" y="118.3613">&#21021;&#22987;&#21270;GPIO</text><line style="stroke:#181818;stroke-width:1;" x1="8" x2="71.3276" y1="95.0234" y2="95.0234"/><text fill="#000000" font-family="sans-serif" font-size="14" lengthAdjust="spacing" textLength="45.1445" x="71.3276" y="100.252">second</text><line style="stroke:#181818;stroke-width:1;" x1="116.4722" x2="179.7998" y1="95.0234" y2="95.0234"/><ellipse cx="18" cy="153.3516" fill="none" rx="3" ry="3" style="stroke:#038048;stroke-width:1;"/><text fill="#000000" font-family="sans-serif" font-size="14" lengthAdjust="spacing" textLength="70" x="27" y="157.5801">&#35774;&#32622;&#20302;&#30005;&#24179;</text><line style="stroke:#181818;stroke-width:1;" x1="8" x2="80.2827" y1="134.2422" y2="134.2422"/><text fill="#000000" font-family="sans-serif" font-size="14" lengthAdjust="spacing" textLength="27.2344" x="80.2827" y="139.4707">third</text><line style="stroke:#181818;stroke-width:1;" x1="107.5171" x2="179.7998" y1="134.2422" y2="134.2422"/></g><!--SRC=[Iyv9B2vMU3f_rxCvQvwjNVforP9gBWKWqDLDoomgBb4eBaajqDK52sahFDcx_qNpNiS09wDd3RkVxzh_P4VNyrajpwPlUpbfFbHNSMfoVbuANCVJZhbFbtS_xPdc7k3f3rLIaf5PX53nOjs-vtlNFTdRztpArgSxDtFLSW40]--></g></svg>