<svg xmlns="http://www.w3.org/2000/svg" xmlns:xlink="http://www.w3.org/1999/xlink" contentStyleType="text/css" data-diagram-type="CLASS" height="117px" preserveAspectRatio="none" style="width:194px;height:117px;background:#FFFFFF;" version="1.1" viewBox="0 0 194 117" width="194px" zoomAndPan="magnify"><defs/><g><!--class GPIO_ResetBits()??--><g class="entity" data-entity="GPIO_ResetBits()&#25286;&#35299;" data-source-line="1" data-uid="ent0002" id="entity_GPIO_ResetBits()&#25286;&#35299;"><rect fill="#F1F1F1" height="96.8281" rx="2.5" ry="2.5" style="stroke:#181818;stroke-width:0.5;" width="173.0479" x="7" y="7"/><ellipse cx="22.4592" cy="23" fill="#ADD1B2" rx="11" ry="11" style="stroke:#181818;stroke-width:1;"/><path d="M25.2249,18.875 Q25.3811,18.6563 25.5686,18.5469 Q25.7561,18.4375 25.9749,18.4375 Q26.3499,18.4375 26.5842,18.7031 Q26.8186,18.9531 26.8186,19.5625 L26.8186,21.0156 Q26.8186,21.625 26.5842,21.8906 Q26.3499,22.1563 25.9749,22.1563 Q25.6311,22.1563 25.428,21.9531 Q25.2249,21.7656 25.1155,21.25 Q25.0686,20.8906 24.8811,20.7031 Q24.553,20.3281 23.9436,20.1094 Q23.3342,19.8906 22.7092,19.8906 Q21.9436,19.8906 21.303,20.2188 Q20.678,20.5469 20.178,21.2969 Q19.6936,22.0469 19.6936,23.0781 L19.6936,24.1719 Q19.6936,25.4063 20.5842,26.2344 Q21.4749,27.0469 23.0686,27.0469 Q24.0061,27.0469 24.6624,26.7969 Q25.053,26.6406 25.4749,26.2031 Q25.7405,25.9375 25.8811,25.8594 Q26.0374,25.7813 26.2405,25.7813 Q26.5686,25.7813 26.8186,26.0469 Q27.0842,26.2969 27.0842,26.6406 Q27.0842,26.9844 26.7405,27.3906 Q26.2405,27.9688 25.4436,28.2969 Q24.3655,28.75 23.0686,28.75 Q21.553,28.75 20.3499,28.125 Q19.3655,27.625 18.678,26.5625 Q17.9905,25.4844 17.9905,24.2031 L17.9905,23.0469 Q17.9905,21.7188 18.5999,20.5781 Q19.2249,19.4219 20.3186,18.8125 Q21.4124,18.1875 22.6467,18.1875 Q23.3811,18.1875 24.0217,18.3594 Q24.678,18.5156 25.2249,18.875 Z " fill="#000000"/><text fill="#000000" font-family="sans-serif" font-size="14" lengthAdjust="spacing" textLength="140.0273" x="36.5613" y="28.7285">GPIO_ResetBits()&#25286;&#35299;</text><line style="stroke:#181818;stroke-width:0.5;" x1="8" x2="179.0479" y1="39" y2="39"/><ellipse cx="18" cy="74.9141" fill="none" rx="3" ry="3" style="stroke:#038048;stroke-width:1;"/><text fill="#000000" font-family="sans-serif" font-size="14" lengthAdjust="spacing" textLength="147.0479" x="27" y="79.1426">GPIO_TypeDef* GPIOx</text><ellipse cx="18" cy="92.5234" fill="none" rx="3" ry="3" style="stroke:#038048;stroke-width:1;"/><text fill="#000000" font-family="sans-serif" font-size="14" lengthAdjust="spacing" textLength="116.7373" x="27" y="96.752">uint16_t GPIO_Pin</text><line style="stroke:#181818;stroke-width:1;" x1="8" x2="79.5239" y1="55.8047" y2="55.8047"/><text fill="#000000" font-family="sans-serif" font-size="14" lengthAdjust="spacing" textLength="28" x="79.5239" y="61.0332">&#21442;&#25968;</text><line style="stroke:#181818;stroke-width:1;" x1="107.5239" x2="179.0479" y1="55.8047" y2="55.8047"/></g><!--SRC=[Iyv9B2vMS0_mz8yFIYrEBN7AB2dMq7pMtVPY-U9gBWKWqDLzsj_qREe6NLqmLnkYEAIo8DKbDKqBpAk0ofHcvfKOciMNG9G4PEPnrG80]--></g></svg>