<svg xmlns="http://www.w3.org/2000/svg" xmlns:xlink="http://www.w3.org/1999/xlink" contentStyleType="text/css" data-diagram-type="CLASS" height="117px" preserveAspectRatio="none" style="width:194px;height:117px;background:#FFFFFF;" version="1.1" viewBox="0 0 194 117" width="194px" zoomAndPan="magnify"><defs/><g><!--class GPIO_SetBits()??--><g class="entity" data-entity="GPIO_SetBits()&#25286;&#35299;" data-source-line="1" data-uid="ent0002" id="entity_GPIO_SetBits()&#25286;&#35299;"><rect fill="#F1F1F1" height="96.8281" rx="2.5" ry="2.5" style="stroke:#181818;stroke-width:0.5;" width="173.0479" x="7" y="7"/><ellipse cx="29.4606" cy="23" fill="#ADD1B2" rx="11" ry="11" style="stroke:#181818;stroke-width:1;"/><path d="M32.2262,18.875 Q32.3825,18.6563 32.57,18.5469 Q32.7575,18.4375 32.9762,18.4375 Q33.3512,18.4375 33.5856,18.7031 Q33.82,18.9531 33.82,19.5625 L33.82,21.0156 Q33.82,21.625 33.5856,21.8906 Q33.3512,22.1563 32.9762,22.1563 Q32.6325,22.1563 32.4293,21.9531 Q32.2262,21.7656 32.1168,21.25 Q32.07,20.8906 31.8825,20.7031 Q31.5543,20.3281 30.945,20.1094 Q30.3356,19.8906 29.7106,19.8906 Q28.945,19.8906 28.3043,20.2188 Q27.6793,20.5469 27.1793,21.2969 Q26.695,22.0469 26.695,23.0781 L26.695,24.1719 Q26.695,25.4063 27.5856,26.2344 Q28.4762,27.0469 30.07,27.0469 Q31.0075,27.0469 31.6637,26.7969 Q32.0543,26.6406 32.4762,26.2031 Q32.7418,25.9375 32.8825,25.8594 Q33.0387,25.7813 33.2418,25.7813 Q33.57,25.7813 33.82,26.0469 Q34.0856,26.2969 34.0856,26.6406 Q34.0856,26.9844 33.7418,27.3906 Q33.2418,27.9688 32.445,28.2969 Q31.3668,28.75 30.07,28.75 Q28.5543,28.75 27.3512,28.125 Q26.3668,27.625 25.6793,26.5625 Q24.9918,25.4844 24.9918,24.2031 L24.9918,23.0469 Q24.9918,21.7188 25.6012,20.5781 Q26.2262,19.4219 27.32,18.8125 Q28.4137,18.1875 29.6481,18.1875 Q30.3825,18.1875 31.0231,18.3594 Q31.6793,18.5156 32.2262,18.875 Z " fill="#000000"/><text fill="#000000" font-family="sans-serif" font-size="14" lengthAdjust="spacing" textLength="124.4688" x="45.1185" y="28.7285">GPIO_SetBits()&#25286;&#35299;</text><line style="stroke:#181818;stroke-width:0.5;" x1="8" x2="179.0479" y1="39" y2="39"/><ellipse cx="18" cy="74.9141" fill="none" rx="3" ry="3" style="stroke:#038048;stroke-width:1;"/><text fill="#000000" font-family="sans-serif" font-size="14" lengthAdjust="spacing" textLength="147.0479" x="27" y="79.1426">GPIO_TypeDef* GPIOx</text><ellipse cx="18" cy="92.5234" fill="none" rx="3" ry="3" style="stroke:#038048;stroke-width:1;"/><text fill="#000000" font-family="sans-serif" font-size="14" lengthAdjust="spacing" textLength="116.7373" x="27" y="96.752">uint16_t GPIO_Pin</text><line style="stroke:#181818;stroke-width:1;" x1="8" x2="79.5239" y1="55.8047" y2="55.8047"/><text fill="#000000" font-family="sans-serif" font-size="14" lengthAdjust="spacing" textLength="28" x="79.5239" y="61.0332">&#21442;&#25968;</text><line style="stroke:#181818;stroke-width:1;" x1="107.5239" x2="179.0479" y1="55.8047" y2="55.8047"/></g><!--SRC=[Iyv9B2vMS0_mz8yFJYrnoYmfrj1yrjtsOldYQYu58D3LVThVz6pg1brTC5SReZIaiY3L9JLD2yohWCgKPkQL69h5bq2K16JcSTK20000]--></g></svg>