<svg xmlns="http://www.w3.org/2000/svg" xmlns:xlink="http://www.w3.org/1999/xlink" contentStyleType="text/css" data-diagram-type="CLASS" height="296px" preserveAspectRatio="none" style="width:331px;height:296px;background:#FFFFFF;" version="1.1" viewBox="0 0 331 296" width="331px" zoomAndPan="magnify"><defs/><g><!--class ????--><g class="entity" data-entity="&#22522;&#26412;&#27493;&#39588;" data-source-line="1" data-uid="ent0002" id="entity_&#22522;&#26412;&#27493;&#39588;"><rect fill="#F1F1F1" height="275.3125" rx="2.5" ry="2.5" style="stroke:#181818;stroke-width:0.5;" width="310.6621" x="7" y="7"/><ellipse cx="130.0811" cy="23" fill="#ADD1B2" rx="11" ry="11" style="stroke:#181818;stroke-width:1;"/><path d="M132.8467,18.875 Q133.0029,18.6563 133.1904,18.5469 Q133.3779,18.4375 133.5967,18.4375 Q133.9717,18.4375 134.2061,18.7031 Q134.4404,18.9531 134.4404,19.5625 L134.4404,21.0156 Q134.4404,21.625 134.2061,21.8906 Q133.9717,22.1563 133.5967,22.1563 Q133.2529,22.1563 133.0498,21.9531 Q132.8467,21.7656 132.7373,21.25 Q132.6904,20.8906 132.5029,20.7031 Q132.1748,20.3281 131.5654,20.1094 Q130.9561,19.8906 130.3311,19.8906 Q129.5654,19.8906 128.9248,20.2188 Q128.2998,20.5469 127.7998,21.2969 Q127.3154,22.0469 127.3154,23.0781 L127.3154,24.1719 Q127.3154,25.4063 128.2061,26.2344 Q129.0967,27.0469 130.6904,27.0469 Q131.6279,27.0469 132.2842,26.7969 Q132.6748,26.6406 133.0967,26.2031 Q133.3623,25.9375 133.5029,25.8594 Q133.6592,25.7813 133.8623,25.7813 Q134.1904,25.7813 134.4404,26.0469 Q134.7061,26.2969 134.7061,26.6406 Q134.7061,26.9844 134.3623,27.3906 Q133.8623,27.9688 133.0654,28.2969 Q131.9873,28.75 130.6904,28.75 Q129.1748,28.75 127.9717,28.125 Q126.9873,27.625 126.2998,26.5625 Q125.6123,25.4844 125.6123,24.2031 L125.6123,23.0469 Q125.6123,21.7188 126.2217,20.5781 Q126.8467,19.4219 127.9404,18.8125 Q129.0342,18.1875 130.2686,18.1875 Q131.0029,18.1875 131.6436,18.3594 Q132.2998,18.5156 132.8467,18.875 Z " fill="#000000"/><text fill="#000000" font-family="sans-serif" font-size="14" lengthAdjust="spacing" textLength="56" x="150.5811" y="28.7285">&#22522;&#26412;&#27493;&#39588;</text><line style="stroke:#181818;stroke-width:0.5;" x1="8" x2="316.6621" y1="39" y2="39"/><ellipse cx="18" cy="74.9141" fill="none" rx="3" ry="3" style="stroke:#038048;stroke-width:1;"/><text fill="#000000" font-family="sans-serif" font-size="14" lengthAdjust="spacing" textLength="112" x="27" y="79.1426">&#36827;&#34892;&#20248;&#20808;&#20998;&#32452;&#37197;&#32622;</text><line style="stroke:#181818;stroke-width:1;" x1="8" x2="135.8794" y1="55.8047" y2="55.8047"/><text fill="#000000" font-family="sans-serif" font-size="14" lengthAdjust="spacing" textLength="52.9033" x="135.8794" y="61.0332">first step</text><line style="stroke:#181818;stroke-width:1;" x1="188.7827" x2="316.6621" y1="55.8047" y2="55.8047"/><ellipse cx="18" cy="114.1328" fill="none" rx="3" ry="3" style="stroke:#038048;stroke-width:1;"/><text fill="#000000" font-family="sans-serif" font-size="14" lengthAdjust="spacing" textLength="115.1172" x="27" y="118.3613">&#22797;&#20301;&#20351;&#33021;EXTI&#26102;&#38047;</text><line style="stroke:#181818;stroke-width:1;" x1="8" x2="124.583" y1="95.0234" y2="95.0234"/><text fill="#000000" font-family="sans-serif" font-size="14" lengthAdjust="spacing" textLength="75.4961" x="124.583" y="100.252">second step</text><line style="stroke:#181818;stroke-width:1;" x1="200.0791" x2="316.6621" y1="95.0234" y2="95.0234"/><ellipse cx="18" cy="153.3516" fill="#84BE84" rx="3" ry="3" style="stroke:#038048;stroke-width:1;"/><text fill="#000000" font-family="sans-serif" font-size="14" lengthAdjust="spacing" textLength="163.3242" x="27" y="157.5801">&#37197;&#32622;&#20013;&#26029;&#32447;(&#24314;&#31435;&#26144;&#23556;&#20851;&#31995;)</text><line style="stroke:#181818;stroke-width:1;" x1="8" x2="133.5381" y1="134.2422" y2="134.2422"/><text fill="#000000" font-family="sans-serif" font-size="14" lengthAdjust="spacing" textLength="57.5859" x="133.5381" y="139.4707">third step</text><line style="stroke:#181818;stroke-width:1;" x1="191.124" x2="316.6621" y1="134.2422" y2="134.2422"/><ellipse cx="18" cy="192.5703" fill="#84BE84" rx="3" ry="3" style="stroke:#038048;stroke-width:1;"/><text fill="#000000" font-family="sans-serif" font-size="14" lengthAdjust="spacing" textLength="284.6621" x="27" y="196.7988">NVIC&#25511;&#21046;&#22120;&#21021;&#22987;&#21270;(&#36873;&#25321;&#36890;&#36947;(IRQn),&#20248;&#20808;&#32423;&#31561;)</text><line style="stroke:#181818;stroke-width:1;" x1="8" x2="129.2554" y1="173.4609" y2="173.4609"/><text fill="#000000" font-family="sans-serif" font-size="14" lengthAdjust="spacing" textLength="66.1514" x="129.2554" y="178.6895">fourth step</text><line style="stroke:#181818;stroke-width:1;" x1="195.4067" x2="316.6621" y1="173.4609" y2="173.4609"/><ellipse cx="18" cy="231.7891" fill="#84BE84" rx="3" ry="3" style="stroke:#038048;stroke-width:1;"/><text fill="#000000" font-family="sans-serif" font-size="14" lengthAdjust="spacing" textLength="240.3311" x="27" y="236.0176">EXTI&#21021;&#22987;&#21270;(&#22806;&#37096;&#20107;&#20214;/&#20013;&#26029;&#22806;&#35774;&#21021;&#22987;&#21270;)</text><line style="stroke:#181818;stroke-width:1;" x1="8" x2="135.8726" y1="212.6797" y2="212.6797"/><text fill="#000000" font-family="sans-serif" font-size="14" lengthAdjust="spacing" textLength="52.917" x="135.8726" y="217.9082">fifth step</text><line style="stroke:#181818;stroke-width:1;" x1="188.7896" x2="316.6621" y1="212.6797" y2="212.6797"/><ellipse cx="18" cy="271.0078" fill="none" rx="3" ry="3" style="stroke:#038048;stroke-width:1;"/><text fill="#000000" font-family="sans-serif" font-size="14" lengthAdjust="spacing" textLength="112" x="27" y="275.2363">&#20013;&#26029;&#36890;&#36947;&#20989;&#25968;&#37197;&#32622;</text><line style="stroke:#181818;stroke-width:1;" x1="8" x2="132.7622" y1="251.8984" y2="251.8984"/><text fill="#000000" font-family="sans-serif" font-size="14" lengthAdjust="spacing" textLength="59.1377" x="132.7622" y="257.127">sixth step</text><line style="stroke:#181818;stroke-width:1;" x1="191.8999" x2="316.6621" y1="251.8984" y2="251.8984"/></g><!--SRC=[Iyv9B2vMU3f_rxCvQvwjNVforP9gBWKWqDLDoomgBb4eBaajqDK52sahlDW_-yN2dYTxPZnjxNZQqVPyTylBrjxdUzT1THId9kVdfQ1gURgazybU8Dh_edclQqI8vxFfsrvEcW_LK9AHMOIc7cBWanrhdqrR-tpNVesdktSzNztzRCQ2fnjQdhPkVhvvjoRCVVcbHIKPgBhzmZoTd_KjVzgnxUdC5KyxvZvTtlsqPvh6ouREPzqhNpRCUjauMSCpA31FKmVYYUUxbZzVsmatCJCDtK2Gan7cF5qoxMNpYYUxkf_itgOFSIDGwCMwVN0bCAEAColGZOAeXpZYQVlUPrCtG0ElbWi0]--></g></svg>